<svg width="226" height="75" viewBox="0 0 226 75" fill="none" xmlns="http://www.w3.org/2000/svg">
<g clip-path="url(#clip0_2081_77)">
<path d="M208.003 0.000118749H18.0074C17.3148 0.000118749 16.6306 0.000118749 15.9399 0.00382367C15.3617 0.00752859 14.7881 0.0182914 14.2043 0.0273499C12.9361 0.0419877 11.6709 0.151421 10.4197 0.354698C9.17024 0.562401 7.95992 0.953979 6.82967 1.51619C5.7008 2.08316 4.66932 2.81987 3.77265 3.69961C2.87127 4.57687 2.11991 5.59087 1.54744 6.70261C0.973395 7.81214 0.57535 9.0011 0.367053 10.2284C0.156776 11.4542 0.0436241 12.6941 0.0286126 13.9371C0.0110862 14.505 0.00923535 15.0749 0 15.6429V58.4611C0.00923535 59.0363 0.0110862 59.5935 0.0286126 60.1689C0.0436287 61.4118 0.156781 62.6516 0.367053 63.8774C0.574775 65.1054 0.972844 66.2951 1.54744 67.405C2.11965 68.5131 2.87112 69.523 3.77265 70.3954C4.66592 71.2791 5.69807 72.0163 6.82967 72.5789C7.95991 73.1426 9.1701 73.5365 10.4197 73.7474C11.6711 73.9491 12.9362 74.0586 14.2043 74.075C14.7881 74.0876 15.3617 74.0948 15.9399 74.0948C16.6306 74.0985 17.3149 74.0985 18.0074 74.0985H208.003C208.682 74.0985 209.371 74.0985 210.05 74.0948C210.626 74.0948 211.216 74.0876 211.791 74.075C213.057 74.0594 214.32 73.95 215.568 73.7474C216.822 73.5351 218.037 73.1412 219.172 72.5789C220.303 72.016 221.334 71.2788 222.227 70.3954C223.126 69.5196 223.879 68.5105 224.458 67.405C225.028 66.2942 225.423 65.1047 225.627 63.8774C225.838 62.6515 225.955 61.4119 225.978 60.1689C225.985 59.5935 225.985 59.0363 225.985 58.4611C226 57.7881 226 57.1188 226 56.4349V17.6654C226 16.987 226 16.3141 225.985 15.6429C225.985 15.0749 225.985 14.505 225.978 13.937C225.955 12.694 225.838 11.4543 225.627 10.2284C225.422 9.00174 225.028 7.81287 224.458 6.70254C223.292 4.47417 221.444 2.6603 219.172 1.51602C218.037 0.955186 216.822 0.563712 215.568 0.354531C214.32 0.150358 213.057 0.0408872 211.791 0.0270906C211.216 0.0180506 210.626 0.00719514 210.05 0.00358285C209.371 -0.00012207 208.682 -0.00012207 208.003 -0.00012207V0.000118749Z" fill="#A6A6A6"/>
<path d="M15.9487 72.4774C15.3733 72.4774 14.8118 72.4702 14.2409 72.4576C13.0582 72.4425 11.8783 72.3415 10.7108 72.1554C9.62216 71.9715 8.56758 71.6295 7.58182 71.1405C6.60511 70.6556 5.71426 70.0197 4.94342 69.2573C4.16142 68.5038 3.51037 67.63 3.01606 66.6703C2.51631 65.7044 2.17046 64.6691 1.99054 63.6004C1.79625 62.4521 1.69113 61.291 1.67609 60.1271C1.66411 59.7364 1.64844 58.4356 1.64844 58.4356V15.6427C1.64844 15.6427 1.66513 14.3619 1.67618 13.9856C1.69058 12.8236 1.79509 11.6642 1.9888 10.5177C2.16905 9.4461 2.51518 8.40779 3.01519 7.43874C3.50768 6.47974 4.15512 5.60523 4.93241 4.84909C5.70883 4.08577 6.60252 3.44664 7.5809 2.95501C8.56439 2.4676 9.61697 2.12793 10.7034 1.94738C11.8747 1.75948 13.0587 1.65789 14.2455 1.64347L15.9497 1.62085H210.04L211.765 1.64438C212.941 1.65808 214.114 1.75877 215.275 1.94557C216.372 2.12838 217.436 2.47042 218.43 2.96044C220.39 3.95122 221.985 5.51873 222.991 7.44326C223.484 8.40562 223.824 9.43546 224.002 10.4978C224.198 11.6538 224.308 12.8222 224.331 13.9938C224.336 14.5184 224.336 15.0819 224.336 15.6427C224.351 16.3374 224.351 16.9986 224.351 17.6652V56.4347C224.351 57.1077 224.351 57.7644 224.336 58.4265C224.336 59.0289 224.336 59.5808 224.329 60.1487C224.307 61.2994 224.199 62.447 224.006 63.5823C223.83 64.6587 223.486 65.7021 222.986 66.6759C222.488 67.6251 221.841 68.4914 221.068 69.2428C220.296 70.0093 219.404 70.6489 218.425 71.137C217.433 71.6297 216.371 71.9731 215.275 72.1554C214.107 72.3425 212.927 72.4435 211.745 72.4576C211.191 72.4702 210.612 72.4774 210.05 72.4774L208.002 72.4811L15.9487 72.4774Z" fill="black"/>
<path d="M46.7785 37.6062C46.7988 36.06 47.2176 34.544 47.9957 33.1992C48.7739 31.8544 49.8862 30.7245 51.2292 29.9146C50.376 28.7195 49.2505 27.736 47.942 27.0421C46.6335 26.3483 45.1781 25.9632 43.6914 25.9176C40.52 25.5911 37.4454 27.779 35.8293 27.779C34.1819 27.779 31.6936 25.95 29.0142 26.0041C27.281 26.059 25.592 26.5534 24.1115 27.439C22.6311 28.3245 21.4097 29.5712 20.5665 31.0574C16.9139 37.2602 19.6384 46.3762 23.1373 51.3901C24.8879 53.8453 26.9338 56.5877 29.6108 56.4905C32.2304 56.3839 33.2088 54.852 36.3709 54.852C39.5037 54.852 40.4216 56.4905 43.153 56.4286C45.964 56.3839 47.735 53.9626 49.4242 51.4842C50.6819 49.7348 51.6498 47.8013 52.2919 45.7554C50.6588 45.0779 49.2651 43.9439 48.2847 42.4947C47.3043 41.0456 46.7804 39.3454 46.7785 37.6062Z" fill="white"/>
<path d="M41.6198 22.6202C43.1525 20.8155 43.9075 18.4959 43.7247 16.1539C41.3831 16.3952 39.2202 17.4928 37.6668 19.2283C36.9073 20.0761 36.3256 21.0624 35.955 22.1309C35.5844 23.1993 35.432 24.3289 35.5068 25.4551C36.678 25.467 37.8366 25.218 38.8955 24.7269C39.9544 24.2358 40.8859 23.5155 41.6198 22.6202Z" fill="white"/>
<path d="M79.8924 50.2753H70.9528L68.806 56.493H65.0195L73.487 33.4891H77.421L85.8884 56.493H82.0374L79.8924 50.2753ZM71.8787 47.4061H78.9648L75.4716 37.3153H75.3738L71.8787 47.4061Z" fill="white"/>
<path d="M104.175 48.108C104.175 53.3199 101.331 56.6684 97.0394 56.6684C95.9522 56.7242 94.8709 56.4785 93.9195 55.9596C92.968 55.4407 92.1847 54.6694 91.6594 53.7341H91.5782V62.0412H88.0684V39.7213H91.4657V42.5108H91.5303C92.0798 41.58 92.8763 40.8128 93.835 40.2907C94.7937 39.7686 95.8788 39.5111 96.9748 39.5458C101.315 39.5458 104.175 42.9106 104.175 48.108ZM100.568 48.108C100.568 44.7125 98.7786 42.4801 96.0489 42.4801C93.3672 42.4801 91.5635 44.7595 91.5635 48.108C91.5635 51.4873 93.3672 53.7504 96.0489 53.7504C98.7786 53.7504 100.568 51.5344 100.568 48.108Z" fill="white"/>
<path d="M122.995 48.1081C122.995 53.32 120.151 56.6685 115.86 56.6685C114.772 56.7243 113.691 56.4787 112.74 55.9597C111.788 55.4408 111.005 54.6695 110.48 53.7342H110.398V62.0413H106.889V39.7214H110.286V42.5109H110.351C110.9 41.5802 111.697 40.8129 112.655 40.2908C113.614 39.7687 114.699 39.5113 115.795 39.5459C120.135 39.5459 122.995 42.9107 122.995 48.1081ZM119.388 48.1081C119.388 44.7126 117.599 42.4802 114.869 42.4802C112.188 42.4802 110.384 44.7596 110.384 48.1081C110.384 51.4874 112.188 53.7505 114.869 53.7505C117.599 53.7505 119.388 51.5345 119.388 48.1081H119.388Z" fill="white"/>
<path d="M135.434 50.0835C135.694 52.3648 137.953 53.8626 141.041 53.8626C143.999 53.8626 146.127 52.3647 146.127 50.3078C146.127 48.5223 144.844 47.4531 141.804 46.7205L138.765 46.0023C134.458 44.982 132.459 43.0065 132.459 39.8009C132.459 35.8318 135.985 33.1056 140.993 33.1056C145.948 33.1056 149.346 35.8318 149.46 39.8009H145.917C145.705 37.5052 143.77 36.1195 140.943 36.1195C138.115 36.1195 136.181 37.5215 136.181 39.5621C136.181 41.1884 137.416 42.1454 140.439 42.878L143.023 43.5003C147.835 44.6165 149.834 46.5124 149.834 49.8772C149.834 54.1809 146.339 56.8763 140.78 56.8763C135.579 56.8763 132.068 54.2442 131.841 50.0834L135.434 50.0835Z" fill="white"/>
<path d="M157.409 35.7523V39.7214H160.661V42.4476H157.409V51.6936C157.409 53.13 158.06 53.7993 159.489 53.7993C159.875 53.7927 160.261 53.7661 160.644 53.7197V56.4296C160.001 56.5474 159.348 56.6007 158.695 56.5888C155.233 56.5888 153.883 55.3134 153.883 52.0608V42.4476H151.396V39.7214H153.883V35.7523H157.409Z" fill="white"/>
<path d="M162.544 48.1081C162.544 42.8311 165.713 39.5151 170.654 39.5151C175.611 39.5151 178.765 42.831 178.765 48.1081C178.765 53.3995 175.628 56.701 170.654 56.701C165.681 56.701 162.544 53.3995 162.544 48.1081ZM175.189 48.1081C175.189 44.4882 173.498 42.3517 170.654 42.3517C167.81 42.3517 166.12 44.5045 166.12 48.1081C166.12 51.7424 167.81 53.8627 170.654 53.8627C173.498 53.8627 175.189 51.7424 175.189 48.1081H175.189Z" fill="white"/>
<path d="M181.658 39.7214H185.006V42.576H185.087C185.313 41.6845 185.846 40.8966 186.595 40.3447C187.344 39.7929 188.264 39.5108 189.2 39.5459C189.604 39.5445 190.008 39.5876 190.402 39.6743V42.8944C189.892 42.7414 189.359 42.6711 188.825 42.6864C188.315 42.6661 187.807 42.7543 187.335 42.9449C186.863 43.1355 186.439 43.424 186.092 43.7905C185.744 44.1571 185.482 44.5931 185.322 45.0686C185.163 45.5441 185.11 46.0478 185.168 46.5451V56.493H181.658L181.658 39.7214Z" fill="white"/>
<path d="M206.584 51.567C206.112 54.6116 203.089 56.701 199.222 56.701C194.248 56.701 191.16 53.4321 191.16 48.1877C191.16 42.927 194.264 39.5151 199.074 39.5151C203.805 39.5151 206.78 42.7027 206.78 47.7879V48.9674H194.703V49.1754C194.647 49.7927 194.726 50.4145 194.934 50.9995C195.142 51.5846 195.475 52.1196 195.91 52.5689C196.345 53.0182 196.873 53.3716 197.458 53.6056C198.043 53.8395 198.672 53.9487 199.303 53.926C200.132 54.0022 200.965 53.8138 201.676 53.3887C202.388 52.9637 202.94 52.3248 203.252 51.567L206.584 51.567ZM194.72 46.5614H203.268C203.3 46.0064 203.214 45.451 203.016 44.93C202.819 44.4091 202.513 43.9339 202.12 43.5342C201.726 43.1345 201.252 42.819 200.728 42.6074C200.204 42.3958 199.641 42.2927 199.074 42.3047C198.503 42.3013 197.936 42.409 197.407 42.6216C196.878 42.8342 196.398 43.1473 195.993 43.5431C195.588 43.9388 195.267 44.4093 195.049 44.9274C194.83 45.4454 194.718 46.0007 194.72 46.5614V46.5614Z" fill="white"/>
<path d="M71.4396 16.1738C72.1755 16.122 72.9138 16.231 73.6015 16.493C74.2892 16.755 74.909 17.1635 75.4163 17.6889C75.9235 18.2143 76.3056 18.8436 76.5348 19.5313C76.7641 20.2191 76.8349 20.9482 76.7421 21.666C76.7421 25.1973 74.7964 27.2271 71.4396 27.2271H67.3691V16.1738H71.4396ZM69.1194 25.6639H71.2441C71.7699 25.6948 72.2961 25.6102 72.7844 25.4164C73.2727 25.2226 73.7108 24.9245 74.0668 24.5437C74.4227 24.1629 74.6877 23.709 74.8423 23.2151C74.9969 22.7212 75.0373 22.1997 74.9605 21.6886C75.0317 21.1795 74.9872 20.6612 74.8302 20.1709C74.6733 19.6806 74.4077 19.2305 74.0525 18.8527C73.6973 18.4749 73.2613 18.1789 72.7758 17.9858C72.2903 17.7927 71.7672 17.7073 71.2441 17.7358H69.1194V25.6639Z" fill="white"/>
<path d="M78.7192 23.0525C78.6657 22.5044 78.7296 21.9513 78.9069 21.4287C79.0841 20.9062 79.3707 20.4258 79.7483 20.0183C80.1259 19.6108 80.5862 19.2852 81.0996 19.0624C81.6131 18.8396 82.1683 18.7245 82.7297 18.7245C83.2911 18.7245 83.8464 18.8396 84.3598 19.0624C84.8732 19.2852 85.3335 19.6108 85.7111 20.0183C86.0887 20.4258 86.3753 20.9062 86.5526 21.4287C86.7298 21.9513 86.7937 22.5044 86.7403 23.0525C86.7947 23.6013 86.7316 24.1551 86.5548 24.6785C86.378 25.2019 86.0916 25.6832 85.7139 26.0915C85.3362 26.4998 84.8756 26.8261 84.3616 27.0493C83.8477 27.2726 83.2918 27.388 82.7297 27.388C82.1676 27.388 81.6117 27.2726 81.0978 27.0493C80.5839 26.8261 80.1232 26.4998 79.7455 26.0915C79.3678 25.6832 79.0814 25.2019 78.9046 24.6785C78.7279 24.1551 78.6647 23.6013 78.7192 23.0525ZM85.0139 23.0525C85.0139 21.2444 84.1858 20.187 82.7325 20.187C81.2736 20.187 80.4529 21.2444 80.4529 23.0525C80.4529 24.8752 81.2737 25.9244 82.7325 25.9244C84.1858 25.9244 85.014 24.8679 85.014 23.0525H85.0139Z" fill="white"/>
<path d="M97.4026 27.227H95.6615L93.9039 21.0835H93.7711L92.0208 27.227H90.2963L87.9521 18.8855H89.6545L91.1779 25.2505H91.3034L93.0518 18.8855H94.6619L96.4104 25.2505H96.5432L98.0592 18.8855H99.7376L97.4026 27.227Z" fill="white"/>
<path d="M101.709 18.8854H103.325V20.2105H103.45C103.663 19.7346 104.022 19.3356 104.477 19.0692C104.932 18.8028 105.46 18.6823 105.988 18.7244C106.402 18.6939 106.817 18.7551 107.204 18.9035C107.59 19.0518 107.937 19.2836 108.22 19.5815C108.503 19.8795 108.714 20.236 108.837 20.6247C108.96 21.0134 108.992 21.4243 108.931 21.8269V27.2268H107.253V22.2403C107.253 20.8998 106.659 20.2332 105.418 20.2332C105.137 20.2203 104.857 20.2672 104.596 20.3706C104.335 20.4741 104.1 20.6316 103.907 20.8323C103.715 21.0331 103.568 21.2724 103.478 21.5339C103.389 21.7953 103.358 22.0727 103.387 22.347V27.2269H101.709L101.709 18.8854Z" fill="white"/>
<path d="M111.606 15.6292H113.285V27.2269H111.606V15.6292Z" fill="white"/>
<path d="M115.618 23.0527C115.564 22.5045 115.628 21.9514 115.805 21.4288C115.983 20.9063 116.269 20.4258 116.647 20.0183C117.025 19.6108 117.485 19.2852 117.998 19.0624C118.512 18.8396 119.067 18.7245 119.629 18.7245C120.19 18.7245 120.745 18.8396 121.259 19.0624C121.772 19.2852 122.233 19.6108 122.61 20.0183C122.988 20.4258 123.274 20.9063 123.452 21.4288C123.629 21.9514 123.693 22.5045 123.64 23.0527C123.694 23.6014 123.631 24.1553 123.454 24.6787C123.277 25.202 122.991 25.6833 122.613 26.0916C122.235 26.4999 121.774 26.8262 121.261 27.0495C120.747 27.2727 120.191 27.3881 119.629 27.3881C119.066 27.3881 118.511 27.2727 117.997 27.0495C117.483 26.8262 117.022 26.4999 116.644 26.0916C116.266 25.6833 115.98 25.202 115.803 24.6787C115.626 24.1553 115.563 23.6014 115.618 23.0527ZM121.912 23.0527C121.912 21.2446 121.084 20.1872 119.631 20.1872C118.172 20.1872 117.351 21.2446 117.351 23.0527C117.351 24.8753 118.172 25.9246 119.631 25.9246C121.084 25.9245 121.912 24.8681 121.912 23.0527H121.912Z" fill="white"/>
<path d="M125.406 24.868C125.406 23.3665 126.546 22.5009 128.569 22.3778L130.873 22.2476V21.5276C130.873 20.6466 130.279 20.1491 129.132 20.1491C128.195 20.1491 127.546 20.4865 127.359 21.0762H125.735C125.906 19.6435 127.28 18.7245 129.209 18.7245C131.341 18.7245 132.544 19.7656 132.544 21.5276V27.227H130.928V26.0547H130.795C130.526 26.4752 130.147 26.818 129.699 27.0481C129.25 27.2782 128.747 27.3873 128.241 27.3644C127.884 27.4008 127.523 27.3635 127.182 27.2547C126.84 27.146 126.526 26.9683 126.259 26.7331C125.992 26.4979 125.778 26.2104 125.631 25.8892C125.484 25.5679 125.408 25.22 125.406 24.868ZM130.873 24.1552V23.4578L128.796 23.5881C127.625 23.665 127.094 24.0557 127.094 24.7911C127.094 25.5418 127.758 25.9787 128.671 25.9787C128.938 26.0053 129.209 25.9788 129.465 25.9008C129.722 25.8228 129.961 25.695 130.166 25.5249C130.371 25.3547 130.54 25.1458 130.661 24.9105C130.783 24.6752 130.855 24.4183 130.873 24.1552Z" fill="white"/>
<path d="M134.75 23.0526C134.75 20.4168 136.131 18.7471 138.28 18.7471C138.812 18.723 139.339 18.8479 139.801 19.1071C140.263 19.3662 140.64 19.7489 140.888 20.2105H141.013V15.6292H142.692V27.2269H141.084V25.909H140.951C140.683 26.3675 140.293 26.7454 139.822 27.002C139.352 27.2585 138.818 27.3838 138.28 27.3644C136.117 27.3645 134.75 25.6947 134.75 23.0526ZM136.484 23.0526C136.484 24.8218 137.334 25.8865 138.756 25.8865C140.171 25.8865 141.045 24.8065 141.045 23.0598C141.045 21.3213 140.161 20.226 138.756 20.226C137.343 20.226 136.484 21.2978 136.484 23.0526H136.484Z" fill="white"/>
<path d="M149.636 23.0525C149.583 22.5044 149.647 21.9513 149.824 21.4287C150.001 20.9062 150.288 20.4258 150.665 20.0183C151.043 19.6108 151.503 19.2852 152.017 19.0624C152.53 18.8396 153.085 18.7245 153.647 18.7245C154.208 18.7245 154.763 18.8396 155.277 19.0624C155.79 19.2852 156.25 19.6108 156.628 20.0183C157.006 20.4258 157.292 20.9062 157.47 21.4287C157.647 21.9513 157.711 22.5044 157.657 23.0525C157.712 23.6013 157.649 24.1551 157.472 24.6785C157.295 25.2019 157.009 25.6832 156.631 26.0915C156.253 26.4998 155.793 26.8261 155.279 27.0493C154.765 27.2726 154.209 27.388 153.647 27.388C153.085 27.388 152.529 27.2726 152.015 27.0493C151.501 26.8261 151.04 26.4998 150.663 26.0915C150.285 25.6832 149.998 25.2019 149.822 24.6785C149.645 24.1551 149.582 23.6013 149.636 23.0525ZM155.931 23.0525C155.931 21.2444 155.103 20.187 153.649 20.187C152.191 20.187 151.37 21.2444 151.37 23.0525C151.37 24.8752 152.191 25.9244 153.649 25.9244C155.103 25.9244 155.931 24.8679 155.931 23.0525Z" fill="white"/>
<path d="M159.909 18.8854H161.525V20.2105H161.65C161.863 19.7346 162.222 19.3356 162.677 19.0692C163.132 18.8028 163.66 18.6823 164.188 18.7244C164.602 18.6939 165.017 18.7551 165.404 18.9035C165.79 19.0518 166.138 19.2836 166.42 19.5815C166.703 19.8795 166.914 20.236 167.037 20.6247C167.16 21.0134 167.192 21.4243 167.132 21.8269V27.2268H165.453V22.2403C165.453 20.8998 164.859 20.2332 163.618 20.2332C163.337 20.2203 163.057 20.2672 162.796 20.3706C162.535 20.4741 162.3 20.6316 162.108 20.8323C161.915 21.0331 161.768 21.2724 161.679 21.5339C161.589 21.7953 161.558 22.0727 161.588 22.347V27.2269H159.909V18.8854Z" fill="white"/>
<path d="M176.615 16.8087V18.9235H178.458V20.3101H176.615V24.5994C176.615 25.4731 176.982 25.8557 177.818 25.8557C178.032 25.8551 178.245 25.8424 178.458 25.8177V27.189C178.156 27.2419 177.851 27.27 177.545 27.2731C175.678 27.2731 174.935 26.6291 174.935 25.0209V20.31H173.585V18.9234H174.935V16.8087H176.615Z" fill="white"/>
<path d="M180.75 15.6292H182.414V20.2259H182.546C182.77 19.7456 183.138 19.3443 183.602 19.0769C184.066 18.8095 184.603 18.689 185.139 18.7317C185.551 18.7097 185.963 18.7771 186.345 18.9291C186.727 19.0811 187.07 19.3139 187.35 19.6109C187.629 19.9079 187.839 20.2618 187.963 20.6474C188.087 21.0329 188.123 21.4406 188.068 21.8414V27.2269H186.388V22.2475C186.388 20.9152 185.756 20.2404 184.57 20.2404C184.281 20.2172 183.991 20.2561 183.72 20.3544C183.448 20.4526 183.202 20.6079 182.998 20.8094C182.794 21.0108 182.637 21.2535 182.539 21.5205C182.44 21.7875 182.403 22.0724 182.428 22.3552V27.2269H180.75L180.75 15.6292Z" fill="white"/>
<path d="M197.855 24.9746C197.627 25.737 197.133 26.3964 196.459 26.8376C195.785 27.2787 194.975 27.4735 194.17 27.3879C193.61 27.4024 193.053 27.2971 192.538 27.0794C192.023 26.8617 191.563 26.5367 191.189 26.1271C190.816 25.7174 190.537 25.2329 190.374 24.7071C190.21 24.1814 190.165 23.627 190.241 23.0824C190.167 22.5361 190.213 21.9805 190.376 21.4531C190.539 20.9258 190.816 20.439 191.188 20.0258C191.56 19.6126 192.018 19.2825 192.531 19.058C193.044 18.8334 193.601 18.7197 194.162 18.7244C196.529 18.7244 197.956 20.3101 197.956 22.9295V23.5039H191.951V23.5961C191.925 23.9023 191.964 24.2104 192.066 24.5008C192.168 24.7911 192.331 25.0573 192.545 25.2823C192.758 25.5073 193.017 25.6861 193.304 25.8073C193.592 25.9284 193.903 25.9892 194.216 25.9858C194.617 26.0331 195.024 25.9622 195.384 25.7821C195.745 25.602 196.042 25.3209 196.239 24.9746L197.855 24.9746ZM191.951 22.2864H196.246C196.268 22.0064 196.229 21.7252 196.133 21.4608C196.036 21.1965 195.885 20.9548 195.688 20.7512C195.491 20.5477 195.252 20.3869 194.988 20.2792C194.724 20.1714 194.439 20.1191 194.153 20.1255C193.863 20.1219 193.575 20.1754 193.306 20.2827C193.037 20.3901 192.793 20.5491 192.588 20.7505C192.382 20.9519 192.22 21.1915 192.111 21.4553C192.002 21.7191 191.947 22.0017 191.951 22.2864H191.951Z" fill="white"/>
</g>
<defs>
<clipPath id="clip0_2081_77">
<rect width="226" height="74.0984" fill="white"/>
</clipPath>
</defs>
</svg>
